# xmcd
#
# Track frame offsets:
# 150
# 13362
# 29994
# 49002
# 64664
# 83496
# 106720
# 122020
# 139441
# 150082
# 164575
# 177834
# 195824
# 219586
#
# Disc length: 3087 seconds
#
# Revision: 0
# Processed by: cddbd v1.5.1PL0 Copyright (c) Steve Scherf et al.
# Submitted via: Audion 3.0.2 (http://www.panic.com/audion/)
#
DISCID=b70c0d0e
DTITLE=Steve White - Better Days
DYEAR=1900
DGENRE=
TTITLE0=Good Times
TTITLE1=Fool For Love
TTITLE2=Malibu (Livin' Large)
TTITLE3=Better Days
TTITLE4=Mermaid (Sirena Negra)
TTITLE5=National Steel
TTITLE6=Keno Girl
TTITLE7=Dog Song
TTITLE8=Picker In The Promised Land
TTITLE9=Small Town Girl
TTITLE10=Halifax
TTITLE11=Marvin Mouse
TTITLE12=Kung Fu Chopper Pilot
TTITLE13=Far Gone Dude
EXTD=
EXTT0=
EXTT1=
EXTT2=
EXTT3=
EXTT4=
EXTT5=
EXTT6=
EXTT7=
EXTT8=
EXTT9=
EXTT10=
EXTT11=
EXTT12=
EXTT13=
PLAYORDER=
